<?xml version="1.0" standalone="no"?>
<!DOCTYPE svg PUBLIC "-//W3C//DTD SVG 20010904//EN"
 "http://www.w3.org/TR/2001/REC-SVG-20010904/DTD/svg10.dtd">
<svg version="1.0" xmlns="http://www.w3.org/2000/svg"
 width="1024.000000pt" height="1024.000000pt" viewBox="0 0 1024.000000 1024.000000"
 preserveAspectRatio="xMidYMid meet">

<g transform="translate(0.000000,1024.000000) scale(0.100000,-0.100000)"
fill="#000000" stroke="none">
<path d="M0 5120 l0 -5120 5120 0 5120 0 0 5120 0 5120 -5120 0 -5120 0 0
-5120z m8079 4769 c-16 -10 -23 -4 -14 10 3 6 11 8 17 5 6 -4 5 -9 -3 -15z
m42 -26 c-12 -20 -14 -14 -5 12 4 9 9 14 11 11 3 -2 0 -13 -6 -23z m-28 2 c-3
-9 -8 -14 -10 -11 -3 3 -2 9 2 15 9 16 15 13 8 -4z m68 -42 c-12 -20 -14 -14
-5 12 4 9 9 14 11 11 3 -2 0 -13 -6 -23z m771 -23 c5 0 6 5 3 10 -3 6 -1 10 4
10 6 0 11 -6 11 -12 1 -8 6 -6 14 5 9 12 16 14 21 7 3 -5 11 -8 16 -5 5 3 6
-1 3 -10 -5 -12 -9 -13 -20 -4 -8 6 -14 9 -14 6 0 -3 -3 -14 -6 -24 -5 -15 -4
-15 5 -3 5 8 13 11 16 8 4 -4 0 -17 -9 -30 -9 -12 -16 -17 -16 -11 0 13 -18
12 -39 -1 -10 -6 -12 -5 -7 2 10 16 -7 15 -23 0 -9 -8 -11 -8 -8 -2 7 12 -21
29 -31 19 -3 -3 0 -5 6 -5 7 0 12 -8 12 -17 0 -16 -2 -16 -10 -3 -9 13 -12 12
-25 -4 -13 -17 -15 -18 -15 -3 0 22 -17 22 -23 0 -3 -13 -5 -10 -6 7 -1 22 -3
23 -12 7 -5 -9 -7 -23 -3 -30 5 -8 2 -7 -9 2 -15 12 -17 11 -18 -5 0 -11 -3
-14 -5 -7 -3 6 2 23 11 36 12 19 13 26 4 29 -10 3 -9 9 2 24 20 27 67 30 88 5
11 -12 22 -17 30 -12 9 6 6 10 -10 14 -13 4 -21 9 -17 12 3 3 17 1 32 -5 25
-9 27 -8 22 12 l-6 23 11 -22 c7 -13 16 -23 21 -23z m166 27 c6 9 15 6 35 -13
22 -20 27 -22 27 -8 0 10 5 14 16 10 10 -4 13 -2 8 6 -5 8 -2 9 9 5 9 -3 19
-2 22 4 8 12 25 2 25 -14 0 -7 -4 -6 -10 3 -5 8 -10 10 -10 4 0 -6 7 -17 15
-24 12 -10 15 -10 15 0 0 8 3 10 7 7 3 -4 11 0 17 9 10 13 14 12 35 -8 l24
-22 -6 23 c-5 19 -3 20 10 10 12 -10 16 -10 23 1 7 11 12 11 22 2 11 -9 17 -9
26 0 7 7 12 8 12 2 0 -12 -21 -34 -32 -34 -4 0 -8 8 -8 17 0 14 -2 15 -12 4
-11 -11 -10 -14 0 -18 18 -7 42 -33 42 -45 0 -7 -5 -6 -14 1 -10 9 -16 9 -21
1 -5 -8 -12 -7 -23 4 -10 8 -21 15 -27 15 -5 0 -12 8 -16 18 -6 13 -8 14 -9 3
0 -8 -7 -23 -14 -33 -13 -17 -15 -17 -30 -1 -9 9 -19 14 -22 11 -3 -3 1 -11 9
-18 12 -12 11 -15 -7 -24 -16 -9 -24 -8 -33 4 -6 9 -15 12 -20 7 -4 -5 -2 -11
5 -13 6 -3 12 -12 12 -20 0 -13 -4 -12 -18 4 -15 18 -19 19 -32 5 -13 -14 -12
-15 3 -9 19 7 23 -17 7 -43 -7 -12 -12 -12 -29 4 -12 11 -21 16 -21 12 0 -12
28 -36 41 -36 16 0 2 -15 -14 -15 -7 0 -18 6 -24 15 -11 13 -14 13 -24 0 -9
-12 -10 -12 -5 4 4 11 -1 27 -11 40 -17 20 -17 20 0 6 16 -12 20 -12 28 1 5 8
9 19 9 24 0 6 -5 3 -10 -5 -8 -13 -11 -13 -22 -1 -10 10 -10 12 0 7 6 -4 12
-3 12 2 0 6 -7 12 -15 16 -8 3 -15 1 -15 -3 0 -5 -7 -12 -16 -15 -8 -3 -12 -2
-9 4 3 6 1 10 -5 10 -7 0 -9 8 -5 20 4 12 2 20 -5 20 -6 0 -8 -4 -5 -10 3 -5
2 -10 -4 -10 -5 0 -13 5 -16 10 -3 6 -1 10 4 10 6 0 10 3 9 8 -2 4 7 19 20 32
18 20 22 21 16 6 -5 -13 -4 -17 3 -13 17 10 43 -3 43 -22 0 -11 5 -8 13 9 8
14 12 27 9 30 -3 3 -7 -1 -9 -8 -4 -10 -8 -10 -19 -1 -8 6 -14 17 -14 23 0 6
5 4 10 -4 8 -11 12 -12 18 -3z m-8513 -18 c-5 -15 -4 -19 4 -15 8 5 7 -1 -1
-19 -7 -15 -14 -22 -16 -16 -2 6 -8 11 -14 11 -6 0 -8 -6 -5 -14 3 -7 1 -18
-5 -24 -8 -8 -7 -16 3 -28 13 -16 11 -16 -13 0 -29 19 -38 10 -15 -13 8 -10 8
-12 0 -7 -6 3 -14 2 -18 -4 -3 -5 -1 -10 4 -10 6 0 10 -3 9 -7 -2 -5 6 -23 17
-40 20 -33 49 -43 59 -20 3 6 3 1 0 -13 l-7 -25 22 19 c21 19 22 19 15 1 -6
-15 -4 -17 9 -12 15 5 16 3 7 -13 -16 -29 -12 -46 6 -24 8 10 13 13 9 7 -4 -8
0 -13 9 -13 9 0 16 -7 16 -16 0 -14 3 -14 15 -4 13 11 14 10 10 -2 -9 -22 -55
-21 -48 1 3 11 1 11 -7 -3 -10 -15 -14 -16 -21 -5 -8 12 -11 12 -19 -1 -5 -8
-10 -10 -10 -4 0 5 5 15 12 22 6 6 8 15 4 19 -4 4 -12 1 -17 -7 -8 -11 -9 -10
-4 8 8 27 -11 30 -20 2 -4 -11 -11 -18 -16 -15 -5 4 -2 13 6 21 20 21 19 31
-5 37 -11 3 -20 1 -20 -4 0 -5 5 -9 12 -9 6 0 8 -3 5 -6 -4 -4 -13 -2 -20 4
-8 7 -17 9 -20 5 -4 -3 -7 2 -7 13 -1 16 -3 15 -16 -6 -8 -14 -13 -17 -10 -7
5 16 -8 25 -17 10 -2 -5 -2 -2 0 5 2 9 -3 11 -17 7 -12 -4 -20 -2 -20 5 0 6 4
8 10 5 5 -3 17 11 26 32 14 32 18 35 23 18 8 -27 34 -65 44 -65 4 0 -4 21 -19
46 -21 35 -24 48 -14 54 9 6 9 9 0 15 -9 6 -9 9 1 16 7 4 10 11 6 16 -5 4 -12
1 -17 -7 -8 -13 -10 -13 -10 -1 0 8 -3 11 -6 8 -4 -4 -2 -12 4 -20 14 -16 3
-31 -25 -34 -27 -3 -25 17 5 54 12 15 20 35 17 43 -3 8 6 2 19 -15 23 -28 25
-28 26 -9 0 12 9 32 20 45 l20 24 -16 -33 c-9 -18 -14 -36 -11 -38 3 -3 8 4
12 15 3 12 10 21 15 21 5 0 12 9 15 20 3 11 9 20 11 20 3 0 2 -10 -1 -21z m69
6 c-4 -8 -1 -15 5 -15 9 0 9 -6 0 -22 -11 -20 -13 -20 -24 -5 -6 9 -15 14 -18
11 -3 -3 -3 4 0 16 6 22 6 21 19 -6 9 -19 12 -21 8 -7 -3 13 -2 27 1 33 9 15
15 12 9 -5z m8823 -5 c7 -8 13 -23 13 -32 0 -9 5 -20 11 -24 8 -4 9 0 4 15 -3
12 -2 21 4 21 5 0 12 -8 16 -18 5 -17 10 -18 40 -8 19 6 35 17 35 23 0 7 5 13
11 13 6 0 8 7 5 17 -6 16 -6 16 12 0 10 -9 21 -14 25 -11 3 3 3 -3 0 -15 -3
-13 -1 -21 6 -21 7 0 10 4 7 8 -2 4 0 14 5 22 8 12 9 11 7 -5 -2 -15 2 -19 15
-17 10 2 26 -3 35 -10 14 -11 15 -11 9 5 -4 11 -3 16 4 12 6 -4 8 -13 5 -21
-6 -15 4 -19 20 -6 5 4 6 3 3 -1 -10 -14 2 -56 15 -51 7 3 19 -3 26 -13 12
-15 12 -16 0 -5 -20 17 -32 15 -28 -5 1 -10 -1 -24 -5 -30 -10 -16 5 -17 20
-2 8 8 13 7 18 -2 6 -8 4 -10 -5 -4 -10 6 -12 4 -7 -9 6 -14 3 -16 -13 -11
-21 7 -29 -11 -7 -18 6 -2 4 -3 -5 -2 -10 2 -18 -1 -18 -6 0 -8 15 -13 33 -10
4 0 7 -4 7 -10 0 -6 -9 -8 -20 -4 -29 9 -25 -2 8 -20 23 -13 23 -15 4 -10 -13
4 -29 2 -36 -4 -10 -9 -15 -8 -19 3 -4 10 -1 13 8 10 17 -7 15 27 -4 42 -17
13 -9 55 15 78 8 9 11 16 5 16 -6 0 -15 -9 -21 -21 -16 -29 -23 -17 -9 14 7
15 16 24 21 21 13 -8 5 18 -10 35 -12 12 -15 12 -23 0 -5 -8 -8 -21 -8 -29 0
-10 2 -11 6 -2 2 6 9 12 14 12 6 0 5 -9 -1 -21 -11 -20 -12 -20 -25 -2 -10 14
-11 21 -2 32 10 12 7 13 -15 7 -19 -4 -28 -2 -28 5 0 7 -9 4 -20 -6 -20 -18
-21 -18 -14 1 7 17 6 18 -10 4 -16 -13 -20 -12 -31 3 -6 9 -14 15 -17 12 -10
-11 -73 -12 -80 -2 -4 7 -12 6 -24 -4 -15 -12 -17 -12 -9 0 6 11 4 13 -7 8 -9
-3 -24 3 -34 14 -9 10 -12 19 -6 19 6 0 13 8 17 19 7 22 35 22 52 1z m45 0
c-5 -13 -4 -13 13 0 17 14 18 13 12 -2 -5 -14 -1 -18 14 -18 16 0 20 5 16 19
-3 14 -1 18 9 14 10 -4 11 -10 4 -23 -18 -33 -46 -33 -78 -2 -29 29 -30 30 -7
28 15 -1 21 -6 17 -16z m-8809 -7 c-5 -12 -2 -15 10 -10 11 4 14 2 10 -9 -5
-14 -7 -14 -21 -1 -8 8 -11 20 -8 26 11 17 16 13 9 -6z m8034 -23 c0 -22 -4
-40 -8 -40 -5 0 -9 -7 -9 -15 0 -8 -4 -15 -10 -15 -5 0 -10 -8 -10 -17 0 -13
-3 -14 -11 -6 -9 9 -8 16 4 28 13 13 14 20 5 35 -7 10 -16 16 -21 13 -5 -3 -4
-9 3 -13 9 -6 9 -13 1 -29 -8 -14 -9 -27 -2 -40 8 -14 7 -20 -4 -24 -9 -4 -12
-1 -8 9 3 7 0 14 -5 14 -6 0 -9 -13 -7 -29 3 -23 0 -29 -11 -24 -7 3 -14 1
-14 -5 0 -6 6 -12 13 -15 6 -2 -1 -4 -18 -4 -16 0 -31 -6 -33 -12 -2 -6 -12
-11 -23 -11 -13 0 -17 5 -13 18 5 14 4 14 -4 2 -8 -10 -8 -18 0 -27 8 -10 7
-12 -6 -7 -9 3 -16 10 -16 15 0 5 -9 4 -20 -3 -30 -19 -47 3 -24 30 17 20 41
21 29 1 -4 -5 -1 -9 4 -9 6 0 11 5 11 10 0 6 8 10 19 10 11 0 21 9 25 23 5 18
8 20 16 7 8 -11 9 -8 4 13 -4 17 -2 27 6 27 6 0 8 5 4 12 -4 7 -3 8 5 4 9 -6
9 -11 0 -22 -7 -9 -8 -14 -1 -14 14 0 24 33 16 56 -5 16 -4 16 5 4 7 -10 11
-11 11 -2 0 6 7 12 16 12 8 0 13 4 10 9 -3 5 0 14 8 20 11 9 18 8 30 -5 10 -9
20 -14 23 -11 6 7 -15 31 -37 41 -9 3 -6 5 7 2 12 -2 24 2 27 10 9 24 13 16
13 -26z m-8239 -1 c-3 -8 -7 -3 -11 10 -4 17 -3 21 5 13 5 -5 8 -16 6 -23z
m1572 17 c-7 -7 -13 -7 -20 0 -6 6 -3 10 10 10 13 0 16 -4 10 -10z m7625 4 c3
-5 1 -10 -4 -10 -6 0 -11 5 -11 10 0 6 2 10 4 10 3 0 8 -4 11 -10z m60 0 c3
-5 1 -10 -4 -10 -6 0 -11 5 -11 10 0 6 2 10 4 10 3 0 8 -4 11 -10z m-1555 -4
c0 -3 -4 -8 -10 -11 -5 -3 -10 -1 -10 4 0 6 5 11 10 11 6 0 10 -2 10 -4z
m-6189 -31 c5 4 6 -1 2 -10 -5 -13 -7 -14 -14 -3 -5 7 -8 18 -8 23 0 6 3 4 6
-3 2 -6 9 -10 14 -7z m6219 -15 c-6 -11 -13 -20 -16 -20 -2 0 0 9 6 20 6 11
13 20 16 20 2 0 0 -9 -6 -20z m1074 4 c3 -8 2 -12 -4 -9 -6 3 -10 10 -10 16 0
14 7 11 14 -7z m-8511 -9 c-3 -9 -8 -14 -10 -11 -3 3 -2 9 2 15 9 16 15 13 8
-4z m809 -9 c7 4 8 2 4 -5 -4 -6 -12 -8 -18 -5 -7 4 -8 2 -4 -4 4 -7 16 -12
27 -12 10 0 19 -4 19 -9 0 -5 3 -16 6 -25 3 -9 1 -16 -6 -16 -6 0 -8 5 -4 12
4 7 3 8 -5 4 -6 -4 -9 -11 -6 -16 3 -4 -1 -11 -7 -14 -7 -3 -4 -4 7 -3 12 1
19 -3 17 -11 -1 -8 2 -11 7 -7 6 3 8 12 4 20 -3 8 0 15 6 15 6 0 11 -5 11 -11
0 -5 6 -7 13 -3 6 4 2 -3 -10 -15 -25 -24 -39 -27 -47 -8 -3 6 -3 2 0 -10 7
-31 -2 -29 -20 5 -8 15 -15 21 -16 13 0 -23 -55 42 -57 68 -1 14 2 32 8 40 8
12 9 11 4 -7 -4 -13 -1 -29 5 -37 10 -12 10 -15 0 -15 -8 0 -11 -2 -8 -5 3 -3
13 -3 22 1 15 6 15 8 1 18 -19 14 -9 57 11 49 8 -3 15 1 15 8 1 8 3 6 6 -4 2
-9 9 -14 15 -11z m-832 4 c0 -5 -2 -10 -4 -10 -3 0 -8 5 -11 10 -3 6 -1 10 4
10 6 0 11 -4 11 -10z m7500 -15 c0 -8 -2 -15 -4 -15 -2 0 -6 7 -10 15 -3 8 -1
15 4 15 6 0 10 -7 10 -15z m-7420 -1 c0 -2 -9 -8 -20 -14 -15 -8 -18 -8 -14 3
4 11 34 21 34 11z m1097 -9 c0 -8 -6 -16 -14 -19 -16 -7 -17 6 -1 22 15 15 15
15 15 -3z m7723 -1 c0 -8 -19 -13 -24 -6 -3 5 1 9 9 9 8 0 15 -2 15 -3z
m-1364 -13 c12 10 13 9 8 -5 -4 -10 -13 -15 -21 -12 -8 3 -17 6 -19 6 -3 0 -2
5 2 12 6 9 9 9 12 0 3 -10 7 -10 18 -1z m-7442 -9 c2 -4 -4 -8 -14 -8 -10 0
-16 4 -14 8 3 4 9 8 14 8 5 0 11 -4 14 -8z m42 -26 c1 -17 -1 -22 -3 -12 -4
14 -7 16 -13 6 -5 -9 -8 -4 -7 12 3 36 22 31 23 -6z m-446 7 c-1 -5 -7 -19
-15 -33 -10 -18 -14 -20 -15 -8 0 23 11 48 21 48 5 0 9 -3 9 -7z m1442 0 c-6
-2 -10 -9 -6 -14 3 -5 0 -9 -5 -9 -12 0 -14 13 -4 23 3 4 11 7 17 6 6 0 5 -3
-2 -6z m-1362 -7 c0 -3 -4 -8 -10 -11 -5 -3 -10 -1 -10 4 0 6 5 11 10 11 6 0
10 -2 10 -4z m7795 -6 c-3 -5 -2 -10 4 -10 5 0 11 4 13 9 2 5 10 2 18 -7 13
-14 12 -15 -3 -9 -9 3 -17 2 -17 -2 0 -5 5 -11 12 -13 8 -3 8 -9 -1 -24 -11
-19 -11 -19 -9 1 2 12 -2 19 -10 17 -8 -1 -11 2 -6 9 5 8 2 10 -7 7 -10 -4
-15 1 -15 13 0 11 6 19 14 19 7 0 10 -4 7 -10z m-6780 -31 c5 -14 12 -18 23
-14 10 3 2 -7 -17 -24 -18 -16 -30 -34 -27 -40 4 -6 1 -9 -7 -5 -8 3 -21 -1
-29 -10 -10 -9 -19 -11 -29 -5 -11 8 -10 13 8 28 12 10 19 22 15 26 -4 5 -2 5
5 1 7 -4 10 -14 7 -24 -5 -16 -5 -16 6 0 8 13 8 23 -1 40 -10 18 -8 24 7 35
24 18 32 16 39 -8z m300 11 c-4 -6 -1 -19 7 -28 12 -15 11 -16 -4 -3 -15 11
-18 11 -18 -1 0 -8 -8 -22 -18 -31 -18 -17 -32 -14 -32 7 0 6 4 5 9 -3 7 -10
10 -10 16 -1 4 7 2 16 -5 20 -15 9 -4 30 16 30 8 0 14 5 14 10 0 6 5 10 11 10
5 0 7 -5 4 -10z m6562 -1 c4 10 7 10 13 2 4 -7 16 -13 28 -14 16 -1 19 -5 11
-19 -6 -12 -6 -25 2 -40 l11 -21 -31 22 c-28 21 -35 51 -8 34 7 -4 5 1 -2 11
-14 17 -15 17 -23 -4 -4 -12 -6 -26 -2 -31 3 -5 1 -9 -4 -9 -6 0 -13 8 -16 17
-6 15 -9 15 -17 3 -9 -12 -9 -11 -4 5 4 11 10 28 13 38 4 15 7 16 14 5 8 -11
10 -11 15 1z m143 1 c0 -5 -5 -10 -11 -10 -5 0 -7 5 -4 10 3 6 8 10 11 10 2 0
4 -4 4 -10z m-6790 -25 c5 3 12 0 16 -6 5 -8 3 -9 -6 -4 -9 6 -12 4 -8 -6 3
-8 0 -19 -6 -25 -8 -8 -12 0 -12 30 0 23 1 33 4 23 2 -9 7 -15 12 -12z m7351
-5 c17 0 19 -4 13 -22 -11 -31 -6 -91 9 -115 5 -7 1 -9 -13 -6 -11 3 -23 9
-26 14 -7 12 -24 11 -24 -2 0 -5 5 -7 10 -4 6 3 10 1 10 -5 0 -19 -22 -6 -31
19 -6 14 -5 20 1 16 6 -3 10 1 10 9 0 8 -5 18 -10 21 -6 4 -3 16 10 32 11 14
18 35 16 47 -2 11 -1 15 1 9 3 -7 13 -13 24 -13z m-8551 6 c0 -3 -4 -8 -10
-11 -5 -3 -10 -1 -10 4 0 6 5 11 10 11 6 0 10 -2 10 -4z m1118 -3 c-2 -5 2 -8
7 -8 6 0 9 3 8 6 -3 9 36 -1 42 -11 2 -4 -5 -16 -17 -26 -21 -19 -21 -19 -9 3
10 19 9 22 -4 17 -8 -4 -15 -9 -15 -13 0 -20 -25 -5 -26 16 -1 13 2 23 7 23 5
0 8 -3 7 -7z m7397 -13 c3 -5 1 -10 -4 -10 -6 0 -11 5 -11 10 0 6 2 10 4 10 3
0 8 -4 11 -10z m-7622 -34 c-10 -13 -20 -22 -22 -20 -4 4 29 44 36 44 2 0 -4
-11 -14 -24z m-970 -21 c-3 -9 -8 -14 -10 -11 -3 3 -2 9 2 15 9 16 15 13 8 -4z
m37 -20 c0 -5 -5 -3 -10 5 -5 8 -10 20 -10 25 0 6 5 3 10 -5 5 -8 10 -19 10
-25z m9275 3 c5 4 5 2 2 -5 -4 -6 -17 -9 -30 -6 l-22 4 22 -13 c20 -12 20 -15
6 -33 -15 -20 -15 -20 -8 3 4 13 2 22 -4 22 -14 0 -14 -31 0 -67 6 -15 10 -30
9 -32 -1 -2 4 -8 12 -12 10 -7 8 -9 -6 -9 -12 0 -16 5 -12 15 3 8 1 15 -3 15
-5 0 -11 -7 -15 -15 -3 -8 -1 -15 5 -15 6 0 8 -7 5 -15 -3 -8 -9 -22 -12 -30
-3 -8 -1 -15 6 -15 6 0 8 5 5 10 -3 6 -1 10 4 10 14 0 14 -17 1 -25 -5 -3 -10
-11 -10 -16 0 -6 5 -7 12 -3 7 5 8 3 4 -5 -5 -7 0 -19 10 -27 11 -9 13 -12 5
-8 -10 5 -11 1 -7 -14 5 -14 -1 -26 -21 -42 -15 -12 -23 -19 -16 -15 7 3 17
-5 24 -17 6 -13 8 -20 4 -16 -4 4 -13 0 -20 -9 -9 -13 -14 -13 -20 -3 -5 9 -4
11 3 6 15 -9 15 -1 1 26 -9 17 -8 23 6 31 13 7 14 11 5 17 -8 5 -20 2 -29 -7
-9 -10 -16 -12 -19 -5 -2 6 -9 9 -16 6 -8 -3 -20 2 -29 10 -17 17 -28 11 -20
-10 4 -10 0 -12 -11 -8 -11 4 -23 -1 -32 -12 -12 -17 -13 -17 -8 -1 4 12 1 17
-12 18 -11 0 -14 3 -6 6 6 2 10 9 7 13 -3 5 0 12 6 16 8 5 9 3 4 -6 -6 -10 -4
-12 9 -7 11 5 15 3 10 -4 -4 -7 -1 -10 7 -7 8 3 13 11 11 17 -1 7 2 10 8 6 14
-9 13 8 -2 24 -11 10 -10 11 3 6 9 -3 21 -17 27 -30 9 -18 17 -23 39 -21 15 2
29 5 31 6 7 7 28 5 40 -3 7 -6 12 -6 12 1 0 5 -14 15 -31 21 -39 13 -42 14
-34 1 3 -6 -5 -10 -18 -10 -14 0 -28 7 -31 16 -4 10 -2 13 6 8 8 -5 9 -2 5 9
-4 10 -2 16 6 14 7 -1 11 9 10 26 -1 15 2 25 8 22 5 -4 9 0 10 7 0 10 2 10 6
1 10 -26 21 -12 13 17 -5 17 -5 28 -1 26 5 -3 13 7 20 22 10 24 10 25 -2 10
-8 -10 -20 -18 -28 -18 -8 0 -6 6 7 16 14 11 16 17 6 21 -11 4 -11 8 1 22 8 9
17 24 21 35 5 15 2 17 -14 13 -11 -3 -18 -1 -14 4 3 5 12 9 20 9 8 0 14 5 14
10 0 7 6 7 19 1 10 -6 22 -7 26 -3z m-8380 -16 c9 24 40 11 40 -16 0 -16 -5
-22 -14 -18 -7 3 -17 -1 -23 -9 -8 -11 -9 -10 -4 4 3 10 0 17 -8 17 -8 0 -16
10 -19 23 -6 21 -5 21 8 3 12 -16 15 -17 20 -4z m-691 -24 c-3 -5 -10 -6 -15
-3 -5 4 -9 0 -9 -8 0 -9 9 -13 24 -12 14 2 32 -5 42 -16 16 -18 16 -19 1 -13
-9 3 -17 2 -17 -3 0 -17 12 -22 29 -13 27 14 45 -3 32 -28 -12 -23 -43 -19
-34 4 4 10 0 12 -11 8 -10 -4 -16 -1 -16 7 0 11 -3 11 -11 -1 -9 -12 -10 -12
-5 3 3 11 -1 25 -10 35 -15 15 -16 14 -9 -7 5 -16 4 -21 -4 -17 -6 4 -11 14
-11 22 0 8 -4 13 -9 10 -5 -4 -8 2 -6 11 2 10 4 21 4 25 1 4 10 6 20 5 11 0
17 -5 15 -9z m671 -16 c-6 -7 -34 11 -29 19 3 5 11 3 19 -4 7 -6 12 -13 10
-15z m7719 -53 c-14 -16 -15 -20 -1 -33 8 -8 18 -12 21 -8 4 3 4 -2 0 -13 -7
-18 -6 -19 12 -5 19 14 19 14 1 -7 -18 -21 -18 -21 0 -27 22 -7 26 -62 6 -60
-29 2 -32 5 -27 18 3 7 -2 16 -11 20 -9 3 -14 10 -10 15 3 5 1 13 -5 16 -8 5
-7 12 2 22 11 13 9 18 -10 31 -12 8 -22 20 -22 26 0 6 5 4 10 -4 7 -10 10 -11
10 -2 0 7 -7 15 -16 19 -12 4 -11 8 8 18 33 17 55 -1 32 -26z m670 15 c3 -8 2
-12 -4 -9 -6 3 -10 10 -10 16 0 14 7 11 14 -7z m-8928 -70 c1 -13 -2 -24 -7
-24 -5 0 -8 6 -6 13 1 6 -6 11 -15 9 -11 -2 -16 2 -13 10 10 25 40 18 41 -8z
m30 -22 c1 -20 -1 -31 -3 -25 -3 9 -10 10 -24 3 -11 -6 -19 -7 -19 -1 0 5 7
12 16 15 9 3 14 13 11 20 -3 8 -1 17 6 20 7 2 12 5 12 5 0 1 0 -16 1 -37z
m8214 28 c0 -5 -7 -7 -15 -4 -8 4 -15 8 -15 10 0 2 7 4 15 4 8 0 15 -4 15 -10z
m-8177 -20 c3 -11 10 -20 17 -20 6 0 8 5 4 12 -4 7 -3 8 5 4 18 -12 2 -27 -22
-21 -21 6 -21 6 -2 -7 11 -7 22 -13 25 -13 22 -4 50 -18 50 -26 0 -6 4 -8 8
-5 4 2 8 -4 8 -15 0 -10 -6 -19 -13 -19 -7 0 -10 7 -7 18 5 13 4 14 -4 3 -11
-15 -6 -36 12 -60 8 -11 8 -13 -1 -7 -8 4 -13 2 -13 -4 0 -6 -4 -8 -10 -5 -5
3 -20 8 -32 10 -30 6 -43 21 -24 28 9 4 16 1 16 -5 0 -6 3 -9 6 -6 9 10 -16
48 -31 48 -8 0 -15 5 -15 10 0 6 3 9 8 9 22 -4 52 2 52 11 0 5 -7 7 -16 3 -9
-3 -20 0 -25 8 -6 10 -9 10 -9 2 0 -7 -3 -13 -7 -13 -5 0 -8 11 -8 25 0 14 3
25 8 25 4 0 7 5 7 11 0 5 -5 7 -12 3 -7 -4 -8 -3 -4 4 11 18 23 14 29 -8z
m8872 -46 c1 -19 0 -32 -4 -28 -3 3 -6 15 -7 27 0 12 -4 33 -8 47 -6 21 -5 22
4 7 7 -10 13 -34 15 -53z m-8911 -10 c9 -24 7 -36 -4 -29 -6 4 -7 11 -4 17 5
7 1 9 -9 5 -11 -4 -14 -2 -10 9 7 19 19 18 27 -2z m8323 -54 c-2 -17 -9 -36
-16 -43 -10 -9 -11 -8 -5 7 4 12 4 17 -2 13 -6 -3 -9 6 -8 21 2 33 1 32 19 32
11 0 14 -9 12 -30z m34 -10 c6 0 7 6 3 13 -6 9 -4 9 8 -1 11 -9 18 -9 21 -2 4
7 5 7 4 0 -2 -7 -5 -10 -9 -8 -3 2 -16 -6 -27 -16 -21 -19 -21 -19 -15 -1 5
13 4 16 -4 11 -14 -8 -15 -5 -5 21 7 17 8 17 11 1 2 -10 8 -18 13 -18z m-8344
-2 c-3 -8 -6 -5 -6 6 -1 11 2 17 5 13 3 -3 4 -12 1 -19z m28 12 c3 -5 1 -10
-4 -10 -6 0 -11 5 -11 10 0 6 2 10 4 10 3 0 8 -4 11 -10z m8585 -20 c6 -11 8
-20 6 -20 -3 0 -10 9 -16 20 -6 11 -8 20 -6 20 3 0 10 -9 16 -20z m-208 -15
c-2 -14 1 -32 8 -40 9 -10 9 -15 1 -15 -6 0 -11 4 -11 9 0 5 -12 8 -26 6 -17
-1 -22 1 -15 8 5 5 7 17 5 26 -3 9 2 5 11 -9 13 -21 15 -22 13 -5 -2 18 8 45
16 45 2 0 1 -11 -2 -25z m112 -1 c3 -9 2 -12 -5 -9 -6 4 -8 -2 -4 -18 5 -17 2
-26 -10 -31 -9 -3 -13 -2 -10 3 3 5 0 11 -7 14 -7 2 -5 3 5 2 19 -3 19 -3 11
20 -6 13 -9 14 -16 3 -8 -10 -9 -10 -5 2 2 8 10 14 16 13 6 -2 11 2 11 7 0 15
7 12 14 -6z m-84 -29 c0 -5 -5 -3 -10 5 -5 8 -10 20 -10 25 0 6 5 3 10 -5 5
-8 10 -19 10 -25z m160 -5 c-6 -12 -14 -19 -17 -16 -3 3 0 12 6 20 7 8 9 21 5
28 -5 10 -4 10 5 2 10 -9 10 -17 1 -34z m70 24 c0 -2 -7 -4 -15 -4 -8 0 -15 4
-15 10 0 5 7 7 15 4 8 -4 15 -8 15 -10z m223 -4 c-3 -12 -8 -19 -11 -16 -5 6
5 36 12 36 2 0 2 -9 -1 -20z m-323 -1 c0 8 2 12 5 9 3 -3 2 -13 -1 -22 -5 -14
-9 -15 -16 -4 -7 9 -8 7 -5 -9 3 -15 0 -23 -8 -23 -11 0 -12 6 -3 31 8 23 13
27 19 17 7 -11 9 -11 9 1z m-8494 -14 c8 -7 9 -16 3 -27 -6 -12 -6 -18 0 -18
6 0 8 -7 4 -16 -5 -13 -7 -13 -14 -2 -7 10 -9 10 -9 -2 0 -13 -1 -13 -10 0 -8
13 -10 13 -10 -1 0 -21 34 -31 51 -15 11 9 11 8 0 -6 -7 -9 -10 -21 -7 -26 3
-5 -2 -9 -10 -9 -8 0 -13 6 -10 14 3 7 1 13 -4 13 -6 0 -10 -6 -11 -12 0 -7
-5 -2 -10 11 -11 28 -4 55 11 46 5 -3 10 1 10 10 0 12 -4 13 -18 6 -14 -8 -18
-5 -19 12 -1 12 1 17 5 12 9 -13 42 -16 42 -4 0 5 -6 9 -14 9 -8 0 -18 5 -21
11 -9 13 25 8 41 -6z m34 -15 c-6 -11 -13 -20 -16 -20 -2 0 0 9 6 20 6 11 13
20 16 20 2 0 0 -9 -6 -20z m8520 10 c0 -5 -5 -10 -11 -10 -5 0 -7 5 -4 10 3 6
8 10 11 10 2 0 4 -4 4 -10z m263 -75 c4 -8 3 -16 -1 -19 -4 -3 -9 4 -9 15 -2
23 3 25 10 4z m-29 -3 c3 -5 -1 -9 -9 -9 -8 0 -12 4 -9 9 3 4 7 8 9 8 2 0 6
-4 9 -8z m-8778 -67 c-1 -8 -7 -20 -13 -26 -7 -7 -9 -3 -6 15 6 27 23 37 19
11z m8789 -62 c2 -16 6 -37 10 -48 5 -16 5 -17 -4 -5 -7 10 -11 11 -11 3 0 -7
-5 -13 -12 -13 -9 0 -9 3 0 12 18 18 14 32 -5 17 -15 -13 -15 -12 0 12 11 16
15 34 11 45 -4 10 -3 16 1 12 5 -5 9 -20 10 -35z m-8795 13 c0 -2 -8 -10 -17
-17 -16 -13 -17 -12 -4 4 13 16 21 21 21 13z m-12 -70 c-7 -8 -17 -12 -22 -9
-4 3 -2 9 5 14 22 13 31 11 17 -5z m-13 -67 c-5 -16 -4 -19 5 -14 9 6 11 4 5
-4 -10 -18 -27 2 -19 22 9 25 17 21 9 -4z m-21 -45 c3 -8 2 -12 -4 -9 -6 3
-10 10 -10 16 0 14 7 11 14 -7z m30 -10 c3 -8 2 -12 -4 -9 -6 3 -10 10 -10 16
0 14 7 11 14 -7z m8826 12 c0 -3 -4 -8 -10 -11 -5 -3 -10 -1 -10 4 0 6 5 11
10 11 6 0 10 -2 10 -4z m8 -31 c-6 -14 -15 -25 -20 -25 -5 0 -1 11 8 25 9 14
18 25 20 25 2 0 -2 -11 -8 -25z m-25 -56 c-8 -8 -13 -7 -18 2 -5 8 -4 10 3 5
7 -4 12 -2 12 5 0 7 3 9 7 6 4 -4 2 -12 -4 -18z m-8843 -7 c0 -5 -9 -18 -21
-31 -17 -18 -24 -20 -35 -10 -8 6 -12 15 -8 18 4 3 9 0 11 -7 4 -10 9 -9 24 4
15 13 17 19 7 26 -10 6 -8 8 5 8 9 0 17 -4 17 -8z m-50 -70 c24 -12 24 -12 1
-6 -13 3 -21 2 -18 -3 3 -5 -4 -10 -16 -10 -14 -2 -17 1 -9 6 7 4 10 16 6 27
-3 11 -2 15 3 9 4 -6 19 -16 33 -23z m8835 -72 c-3 -5 -12 -7 -20 -4 -11 5
-12 10 -2 25 10 16 13 16 20 4 4 -8 5 -19 2 -25z m-8905 4 c0 -7 -27 -34 -34
-34 -9 0 -2 24 9 32 12 9 25 10 25 2z m8645 -14 c3 -5 -4 -6 -15 -3 -11 3 -22
9 -25 13 -3 5 4 6 15 3 11 -3 22 -9 25 -13z m-8698 -5 c-4 -8 -2 -17 3 -20 6
-4 10 -11 10 -17 0 -6 -8 -3 -18 8 -13 14 -15 22 -8 31 15 17 19 16 13 -2z
m8721 -15 c-7 -11 -17 -20 -22 -20 -5 0 -1 9 9 20 10 11 20 20 22 20 2 0 -2
-9 -9 -20z m203 -3 c-10 -9 -11 -8 -5 6 3 10 9 15 12 12 3 -3 0 -11 -7 -18z
m-9122 4 c7 -5 9 -11 5 -14 -5 -3 -15 1 -22 9 -14 16 -5 18 17 5z m157 -22 c1
-20 -2 -26 -7 -17 -6 8 -9 9 -9 1 0 -17 -31 -9 -42 10 -5 10 -15 14 -21 11 -9
-5 -9 -4 -1 5 8 8 18 9 37 2 19 -8 27 -7 31 5 8 21 11 17 12 -17z m104 21 c0
-5 -2 -10 -4 -10 -3 0 -8 5 -11 10 -3 6 -1 10 4 10 6 0 11 -4 11 -10z m8760
-5 c0 -2 -9 -3 -19 -2 -11 0 -18 5 -15 9 4 6 34 0 34 -7z m-8970 -30 c0 -5 -5
-3 -10 5 -5 8 -10 20 -10 25 0 6 5 3 10 -5 5 -8 10 -19 10 -25z m8910 9 c-7
-7 -19 -10 -27 -7 -12 5 -14 3 -8 -7 6 -9 4 -11 -4 -6 -9 6 -8 12 4 26 20 22
52 16 35 -6z m114 -14 c9 -13 9 -13 -5 -3 -9 7 -18 10 -21 7 -3 -2 -8 2 -12
11 -3 9 -2 13 4 10 6 -3 10 0 11 7 0 9 2 8 6 -2 3 -8 11 -22 17 -30z m-51 0
c10 -12 9 -12 -5 -2 -11 9 -18 10 -23 2 -3 -6 -11 -8 -16 -4 -13 8 -2 23 16
20 8 -1 21 -8 28 -16z m-8936 4 c-3 -3 -12 -4 -19 -1 -8 3 -5 6 6 6 11 1 17
-2 13 -5z m7129 -143 c305 -63 524 -290 574 -597 6 -37 10 -999 10 -2590 0
-2784 4 -2622 -60 -2781 -87 -217 -254 -376 -464 -442 l-81 -26 -2610 -3
c-2907 -3 -2706 -7 -2857 66 -155 76 -265 187 -343 347 -82 167 -78 130 -84
860 -3 358 -6 1521 -6 2585 0 1533 3 1950 13 2005 15 82 47 163 93 242 46 76
171 200 249 245 69 40 190 85 268 98 26 4 1208 8 2627 9 2484 1 2583 0 2671
-18z"/>
<path d="M8810 9799 c0 -5 5 -7 10 -4 6 3 10 8 10 11 0 2 -4 4 -10 4 -5 0 -10
-5 -10 -11z"/>
<path d="M8770 9788 c0 -6 3 -9 6 -5 3 3 15 -3 27 -14 11 -10 26 -19 31 -19
12 0 -44 49 -56 50 -5 0 -8 -5 -8 -12z"/>
<path d="M9281 9804 c0 -11 3 -14 6 -6 3 7 2 16 -1 19 -3 4 -6 -2 -5 -13z"/>
<path d="M9060 9790 c0 -7 -9 -9 -22 -5 -20 5 -20 4 -6 -5 10 -6 15 -18 12
-28 -4 -12 -2 -11 7 3 7 11 17 23 22 26 5 4 5 9 -2 13 -6 4 -11 2 -11 -4z"/>
<path d="M9173 9778 c3 -9 1 -19 -6 -21 -7 -2 -9 -8 -5 -12 4 -4 13 -1 21 7
12 12 12 16 -1 28 -14 13 -15 12 -9 -2z"/>
<path d="M9263 9775 c0 -8 4 -15 9 -15 4 0 8 4 8 9 0 6 -4 12 -8 15 -5 3 -9
-1 -9 -9z"/>
<path d="M9140 9770 c0 -5 5 -10 11 -10 5 0 7 5 4 10 -3 6 -8 10 -11 10 -2 0
-4 -4 -4 -10z"/>
<path d="M9361 9764 c0 -11 3 -14 6 -6 3 7 2 16 -1 19 -3 4 -6 -2 -5 -13z"/>
<path d="M9090 9751 c0 -14 38 -33 50 -26 6 3 10 12 9 18 0 9 -2 9 -6 0 -6
-17 -18 -16 -37 3 -9 8 -16 11 -16 5z"/>
<path d="M9210 9751 c0 -5 5 -13 10 -16 6 -3 10 -2 10 4 0 5 -4 13 -10 16 -5
3 -10 2 -10 -4z"/>
<path d="M9129 9688 c15 -21 31 -23 31 -6 0 6 -3 8 -7 5 -3 -4 -13 -1 -22 6
-14 11 -14 10 -2 -5z"/>
<path d="M530 9740 c-8 -5 -12 -12 -9 -15 4 -3 12 1 19 10 14 17 11 19 -10 5z"/>
<path d="M470 9621 c0 -6 4 -13 10 -16 6 -3 7 1 4 9 -7 18 -14 21 -14 7z"/>
<path d="M605 9560 c3 -5 11 -10 16 -10 6 0 7 5 4 10 -3 6 -11 10 -16 10 -6 0
-7 -4 -4 -10z"/>
<path d="M9451 9803 c-1 -6 4 -15 9 -18 6 -4 7 -12 4 -18 -4 -7 -3 -8 1 -4 12
10 16 39 5 32 -5 -3 -11 1 -13 7 -4 9 -6 10 -6 1z"/>
<path d="M9431 9784 c0 -11 3 -14 6 -6 3 7 2 16 -1 19 -3 4 -6 -2 -5 -13z"/>
<path d="M9617 9786 c-4 -10 -1 -13 9 -9 15 6 19 23 5 23 -5 0 -11 -7 -14 -14z"/>
<path d="M9630 9760 c0 -5 5 -10 10 -10 6 0 10 5 10 10 0 6 -4 10 -10 10 -5 0
-10 -4 -10 -10z"/>
<path d="M9665 9760 c-3 -5 -1 -10 4 -10 6 0 11 5 11 10 0 6 -2 10 -4 10 -3 0
-8 -4 -11 -10z"/>
<path d="M9690 9758 c0 -4 7 -8 15 -8 8 0 15 4 15 8 0 5 -7 9 -15 9 -8 0 -15
-4 -15 -9z"/>
<path d="M9595 9750 c3 -5 8 -10 11 -10 2 0 4 5 4 10 0 6 -5 10 -11 10 -5 0
-7 -4 -4 -10z"/>
<path d="M9746 9634 c-8 -21 -8 -39 1 -30 8 7 15 46 9 46 -2 0 -7 -7 -10 -16z"/>
<path d="M8666 9724 c-9 -8 -16 -20 -16 -26 0 -6 1 -9 3 -7 1 2 11 14 21 27
22 25 16 30 -8 6z"/>
<path d="M8636 9665 c-9 -26 -7 -32 5 -12 6 10 9 21 6 23 -2 3 -7 -2 -11 -11z"/>
<path d="M8587 9611 c-4 -17 -3 -21 5 -13 5 5 8 16 6 23 -3 8 -7 3 -11 -10z"/>
<path d="M8610 9620 c0 -5 5 -10 10 -10 6 0 10 5 10 10 0 6 -4 10 -10 10 -5 0
-10 -4 -10 -10z"/>
<path d="M8500 9590 c0 -5 5 -10 10 -10 6 0 10 5 10 10 0 6 -4 10 -10 10 -5 0
-10 -4 -10 -10z"/>
<path d="M1540 9630 c0 -6 -4 -8 -10 -5 -15 9 -12 -9 5 -31 14 -17 15 -18 9 0
-4 10 -2 21 6 26 8 5 9 9 1 14 -6 4 -11 2 -11 -4z"/>
<path d="M1485 9550 c-3 -5 -1 -10 4 -10 6 0 11 5 11 10 0 6 -2 10 -4 10 -3 0
-8 -4 -11 -10z"/>
<path d="M1825 9610 c3 -5 8 -10 11 -10 2 0 4 5 4 10 0 6 -5 10 -11 10 -5 0
-7 -4 -4 -10z"/>
<path d="M8400 9610 c0 -5 5 -10 11 -10 5 0 7 5 4 10 -3 6 -8 10 -11 10 -2 0
-4 -4 -4 -10z"/>
<path d="M9110 9570 c0 -5 5 -10 11 -10 5 0 7 5 4 10 -3 6 -8 10 -11 10 -2 0
-4 -4 -4 -10z"/>
<path d="M9090 9539 c0 -5 4 -8 9 -5 5 4 11 0 14 -6 2 -7 8 -9 13 -5 5 4 2 12
-6 17 -20 13 -30 12 -30 -1z"/>
<path d="M9749 9296 c9 -11 9 -15 -1 -19 -7 -2 -9 -8 -5 -13 11 -11 27 15 20
33 -3 7 -10 13 -15 13 -6 0 -6 -6 1 -14z"/>
<path d="M9721 9284 c0 -11 3 -14 6 -6 3 7 2 16 -1 19 -3 4 -6 -2 -5 -13z"/>
<path d="M9695 9260 c-3 -5 -1 -10 4 -10 6 0 11 5 11 10 0 6 -2 10 -4 10 -3 0
-8 -4 -11 -10z"/>
<path d="M1445 9500 c-3 -5 -1 -10 4 -10 6 0 11 5 11 10 0 6 -2 10 -4 10 -3 0
-8 -4 -11 -10z"/>
<path d="M810 9395 c0 -8 2 -15 4 -15 2 0 6 7 10 15 3 8 1 15 -4 15 -6 0 -10
-7 -10 -15z"/>
<path d="M9118 9433 c7 -3 16 -2 19 1 4 3 -2 6 -13 5 -11 0 -14 -3 -6 -6z"/>
<path d="M9133 9332 c0 -12 10 -23 20 -26 18 -4 18 -4 1 17 -11 12 -20 24 -21
26 -1 2 -1 -6 0 -17z"/>
<path d="M9160 9280 c0 -5 5 -10 10 -10 6 0 10 5 10 10 0 6 -4 10 -10 10 -5 0
-10 -4 -10 -10z"/>
<path d="M986 9275 c-3 -8 -1 -15 4 -15 13 0 22 18 11 24 -5 3 -11 -1 -15 -9z"/>
<path d="M970 9242 c0 -16 28 -47 36 -39 4 4 2 7 -5 7 -7 0 -9 5 -6 10 3 6 1
10 -5 10 -6 0 -8 5 -5 10 3 6 1 10 -4 10 -6 0 -11 -4 -11 -8z"/>
<path d="M9200 9249 c0 -5 5 -7 10 -4 6 3 10 8 10 11 0 2 -4 4 -10 4 -5 0 -10
-5 -10 -11z"/>
<path d="M680 8499 c0 -5 5 -7 10 -4 6 3 10 8 10 11 0 2 -4 4 -10 4 -5 0 -10
-5 -10 -11z"/>
<path d="M4097 7274 c-31 -10 -64 -30 -91 -58 -96 -96 -101 -205 -17 -404 28
-68 54 -137 58 -153 9 -46 -13 -80 -97 -146 -43 -34 -109 -98 -147 -141 -72
-84 -124 -122 -167 -122 -14 0 -88 25 -164 56 -117 48 -147 57 -202 57 -70 1
-103 -12 -160 -60 -80 -67 -105 -210 -54 -311 30 -61 72 -94 209 -164 161 -82
167 -93 135 -239 -63 -281 -66 -538 -10 -806 27 -131 26 -160 -7 -195 -15 -15
-31 -28 -35 -28 -19 0 -190 -90 -227 -120 -23 -17 -52 -55 -67 -86 -23 -48
-26 -63 -22 -128 10 -148 108 -246 248 -246 28 0 85 17 165 49 67 27 138 53
158 56 46 9 97 -15 133 -63 16 -21 89 -100 165 -177 75 -77 139 -150 142 -163
7 -29 -5 -72 -58 -207 -60 -153 -72 -217 -51 -287 31 -109 135 -190 246 -191
60 0 138 28 178 66 33 30 90 116 146 219 74 136 89 143 244 109 236 -52 492
-54 705 -7 153 34 181 34 216 -1 15 -16 55 -80 90 -143 35 -63 79 -134 97
-156 119 -147 370 -102 439 79 29 77 17 157 -49 323 -31 78 -56 157 -56 175 0
28 14 47 106 138 59 58 138 143 176 188 64 75 103 103 145 103 8 0 76 -25 152
-55 146 -58 189 -65 265 -43 55 16 150 110 165 164 29 104 -2 210 -80 277 -24
21 -95 65 -157 98 -148 79 -154 90 -123 229 62 281 64 521 6 795 -14 66 -23
134 -20 151 7 42 31 60 165 133 135 74 164 98 196 166 44 93 24 215 -47 286
-89 89 -176 94 -354 24 -219 -87 -212 -88 -355 65 -55 60 -130 132 -165 160
-96 76 -97 99 -7 295 39 83 47 112 50 173 5 95 -14 146 -76 205 -108 100 -269
100 -364 0 -15 -16 -55 -80 -89 -143 -70 -132 -101 -176 -128 -185 -11 -3 -89
9 -173 27 -146 31 -163 33 -363 32 -194 0 -220 -2 -340 -29 -157 -35 -187 -36
-219 -6 -13 12 -54 80 -91 152 -76 146 -117 190 -199 214 -61 18 -107 18 -169
-1z m1297 -688 c283 -63 572 -224 756 -423 162 -176 297 -420 354 -640 65
-252 63 -579 -5 -719 -66 -137 -240 -166 -340 -57 -65 69 -70 106 -54 369 9
147 -1 223 -42 344 -117 341 -372 582 -711 671 -297 78 -664 -15 -890 -226
-101 -94 -163 -178 -228 -310 -84 -170 -98 -235 -98 -445 0 -156 3 -185 26
-270 46 -172 122 -302 257 -444 78 -81 172 -145 317 -216 163 -79 214 -137
214 -239 0 -66 -18 -108 -64 -148 -54 -48 -131 -68 -203 -53 -169 35 -412 188
-588 371 -192 199 -343 492 -391 760 -23 125 -23 352 -1 476 68 375 295 743
586 951 187 134 396 220 626 258 103 17 383 11 479 -10z m-132 -791 c37 -7
107 -32 154 -54 144 -68 263 -206 321 -372 54 -156 39 -351 -38 -509 -58 -117
-182 -244 -289 -294 -118 -56 -185 -69 -325 -64 -98 4 -132 10 -186 31 -188
72 -336 223 -400 407 -31 90 -38 278 -15 370 67 264 252 436 531 494 46 9 185
5 247 -9z"/>
<path d="M3259 5779 c-11 -7 -11 -9 4 -9 10 0 15 -4 12 -10 -3 -5 1 -10 9 -10
9 0 16 -5 16 -11 0 -6 7 -8 16 -5 8 3 12 2 9 -3 -3 -5 -1 -12 5 -16 5 -3 10
-2 10 3 0 5 12 7 26 4 19 -3 25 -1 20 7 -10 16 -62 41 -70 34 -3 -4 -6 -1 -6
5 0 7 -5 12 -11 12 -5 0 -7 -6 -4 -12 4 -7 0 -5 -7 4 -10 11 -19 14 -29 7z"/>
<path d="M6928 5775 c-8 -5 -19 -21 -26 -35 -11 -22 -11 -22 -6 -2 7 28 0 28
-26 0 -11 -12 -19 -33 -19 -47 1 -18 3 -20 6 -8 2 9 9 15 14 12 5 -4 9 -1 9 4
0 6 5 11 11 11 5 0 7 -6 4 -12 -4 -7 1 -4 9 6 9 11 16 25 16 30 0 6 5 4 10 -4
8 -13 10 -12 11 5 1 11 1 23 0 28 0 4 4 7 10 7 6 0 9 -7 5 -15 -3 -8 -1 -15 4
-15 6 0 10 7 10 15 0 9 6 12 18 9 13 -5 14 -4 3 4 -11 8 -10 11 5 15 10 2 2 4
-18 3 -21 -1 -43 -5 -50 -11z"/>
<path d="M3368 5703 c7 -3 16 -2 19 1 4 3 -2 6 -13 5 -11 0 -14 -3 -6 -6z"/>
<path d="M3570 4056 c-19 -7 -70 -30 -114 -50 -85 -40 -154 -57 -201 -50 -60
10 -120 28 -127 38 -5 7 -8 6 -8 -2 0 -8 9 -16 20 -19 11 -3 17 -9 14 -14 -3
-5 7 -9 21 -9 15 0 24 -4 20 -10 -3 -6 1 -7 9 -4 11 4 16 0 16 -12 0 -16 2
-17 11 -4 8 11 12 12 16 3 2 -7 12 -13 21 -13 15 0 15 2 2 11 -12 8 -9 9 10 4
14 -4 33 -7 43 -6 9 0 15 -4 13 -8 -6 -10 25 -8 42 3 7 4 12 2 12 -5 0 -7 7
-4 15 7 9 12 14 14 15 6 0 -8 5 -10 13 -5 6 4 21 9 32 10 10 2 23 9 27 16 6 9
8 9 8 0 0 -7 4 -13 10 -13 5 0 6 8 3 18 -6 15 -5 16 12 2 10 -8 16 -10 12 -3
-10 16 14 22 37 10 16 -8 18 -6 13 7 -4 9 -2 16 2 16 5 0 11 -6 14 -12 3 -10
9 -10 25 -1 18 11 20 10 16 -2 -4 -11 -2 -13 9 -10 17 7 80 -28 70 -38 -3 -4
2 -7 13 -7 27 0 71 -56 66 -82 -1 -5 4 -7 11 -5 6 1 11 -3 10 -10 -2 -7 4 -10
12 -7 11 5 13 2 9 -10 -4 -11 -1 -16 12 -16 9 0 15 -2 12 -5 -3 -3 26 -38 64
-77 38 -40 67 -77 64 -85 -3 -7 0 -15 6 -19 6 -4 8 -3 4 4 -3 6 -2 13 4 17 5
3 10 23 10 44 0 34 -8 45 -93 127 -51 49 -126 127 -166 174 -98 114 -117 124
-191 96z"/>
<path d="M6534 4028 c-22 -24 -67 -74 -99 -112 -33 -38 -84 -92 -114 -120
-123 -115 -119 -109 -101 -166 5 -17 8 -19 9 -7 1 9 4 16 9 16 23 -4 34 3 28
17 -3 8 -2 13 3 10 8 -5 23 16 25 36 1 3 5 10 10 15 5 4 6 3 3 -3 -4 -7 0 -15
9 -18 9 -3 12 -2 9 5 -8 12 14 41 25 34 5 -3 6 5 2 17 -3 14 -2 19 6 14 7 -4
12 -2 12 4 0 6 5 8 12 4 6 -4 8 -3 5 3 -4 6 -1 16 7 22 11 9 15 9 19 -1 3 -7
6 -3 6 10 1 12 6 22 12 22 6 0 9 7 5 15 -5 13 -2 14 17 4 12 -6 19 -8 15 -4
-4 4 -2 17 4 29 7 11 11 25 10 29 -1 5 2 6 8 2 5 -3 10 1 10 9 0 9 5 16 11 16
5 0 7 5 4 10 -3 6 4 10 15 10 15 0 20 -5 17 -15 -4 -8 -1 -17 5 -21 6 -4 8 -3
4 4 -3 6 -1 14 5 18 8 4 7 9 -2 15 -12 8 -12 11 1 18 10 7 17 6 22 -2 7 -11
12 -3 9 15 -1 8 26 4 35 -5 4 -4 13 -2 21 4 9 9 13 8 13 0 0 -6 5 -11 11 -11
5 0 7 6 4 13 -4 6 3 1 15 -13 12 -14 19 -19 15 -13 -4 9 -1 11 9 7 9 -3 13
-11 9 -18 -4 -7 -1 -6 9 2 12 10 18 9 28 -3 10 -12 16 -13 26 -4 11 9 14 8 14
-6 0 -14 3 -15 14 -6 9 8 16 8 20 2 4 -6 14 -7 23 -4 10 4 14 2 10 -4 -8 -13
30 -10 45 5 8 8 15 7 26 -4 11 -12 17 -13 22 -3 5 6 19 10 34 7 20 -4 24 -2
16 7 -5 6 -7 15 -3 18 15 16 -32 5 -51 -10 -20 -17 -20 -17 -7 0 12 15 11 17
-15 17 -34 0 -131 34 -224 79 -92 44 -126 42 -176 -11z"/>
<path d="M7040 3961 c0 -5 9 -7 20 -4 11 3 20 7 20 9 0 2 -9 4 -20 4 -11 0
-20 -4 -20 -9z"/>
<path d="M7020 3951 c0 -6 4 -13 10 -16 6 -3 7 1 4 9 -7 18 -14 21 -14 7z"/>
<path d="M4620 3392 c-38 -6 -55 -26 -113 -136 -61 -114 -104 -181 -139 -213
-29 -27 -100 -58 -154 -66 -51 -8 -141 8 -164 28 -9 8 -20 15 -25 15 -10 0 32
-37 48 -43 9 -3 8 -9 -3 -23 -14 -18 -14 -18 3 -5 11 9 17 10 17 2 0 -6 8 -11
19 -11 10 0 24 -7 31 -15 9 -11 16 -12 25 -5 8 6 16 7 19 2 3 -5 25 -9 49 -10
45 -2 66 15 50 40 -4 7 -1 8 6 4 7 -5 10 -13 8 -20 -3 -6 3 -12 13 -12 10 0
16 6 13 12 -2 7 1 15 8 20 8 5 10 3 4 -5 -6 -10 -3 -11 14 -2 11 7 21 14 21
17 0 3 -5 2 -12 -2 -7 -5 -8 -3 -4 5 5 7 14 10 22 7 8 -3 14 1 14 9 0 8 8 19
18 24 9 6 14 11 10 11 -4 0 8 16 28 35 19 19 31 35 27 35 -4 0 -1 5 7 10 11 7
11 10 2 10 -7 0 -10 5 -7 11 4 6 13 8 21 5 8 -3 13 -2 12 2 -5 16 48 92 60 87
7 -3 11 -1 8 3 -3 5 6 21 20 38 14 16 23 24 20 17 -4 -6 -3 -13 1 -16 5 -2 1
-2 -7 0 -11 3 -12 1 -3 -8 13 -13 37 -3 28 12 -4 5 1 9 10 9 10 0 13 5 9 13
-4 6 2 3 14 -7 12 -11 22 -14 22 -9 0 6 15 10 34 10 19 -1 32 -5 30 -9 -8 -13
6 -27 21 -22 8 4 12 10 9 15 -10 17 9 9 35 -13 14 -13 20 -16 14 -8 -7 8 -13
19 -13 25 0 5 4 4 9 -4 5 -8 21 -15 36 -15 14 -1 31 -8 37 -16 8 -12 9 -12 4
3 -6 18 4 21 42 10 18 -4 21 -8 10 -15 -8 -6 3 -8 34 -5 26 2 45 1 42 -4 -3
-5 0 -9 5 -9 6 0 11 8 12 18 0 9 2 12 5 7 2 -6 24 -9 49 -7 33 3 45 0 45 -9 0
-11 3 -10 10 1 5 8 10 12 10 8 0 -4 13 -3 30 2 16 5 29 5 29 2 -3 -19 3 -22
17 -8 8 9 21 13 27 9 19 -12 37 -12 37 -2 0 6 4 8 9 5 4 -3 22 -1 40 4 20 5
31 5 31 -1 0 -6 10 -3 22 5 14 10 26 12 39 6 12 -7 19 -6 23 5 3 9 12 12 22 8
10 -4 15 -2 11 3 -3 5 3 10 14 10 10 0 19 -4 19 -8 0 -4 -5 -8 -12 -8 -6 0 -8
-3 -4 -7 4 -5 19 6 32 22 14 17 22 22 18 13 -7 -21 -4 -21 30 -8 18 6 26 6 26
-1 0 -6 10 -8 23 -5 12 3 17 3 10 0 -8 -4 -4 -15 14 -34 14 -16 31 -26 37 -23
6 4 5 -1 -3 -10 -12 -15 -12 -17 4 -11 14 6 16 3 10 -16 -5 -14 -3 -20 3 -16
6 3 16 -7 23 -23 7 -16 16 -28 20 -25 4 2 10 -3 13 -12 4 -10 2 -13 -6 -8 -6
4 -3 -7 7 -24 10 -17 22 -29 27 -26 4 3 8 0 8 -5 0 -6 -4 -11 -10 -11 -5 0
-10 -4 -10 -10 0 -5 8 -7 18 -3 9 3 14 3 10 -2 -10 -10 38 -55 58 -55 8 0 17
-7 20 -15 4 -8 15 -15 25 -15 10 0 19 -4 19 -8 0 -5 6 -9 13 -9 6 0 25 -3 42
-7 20 -4 35 0 49 12 17 15 19 15 13 1 -4 -13 -1 -16 14 -12 10 3 19 10 19 15
0 6 6 6 14 -1 10 -8 16 -9 21 -1 3 6 11 7 17 4 7 -4 8 -2 4 4 -4 7 -2 12 4 12
6 0 15 12 20 26 6 14 14 22 20 19 5 -3 10 0 10 7 0 7 9 19 21 26 12 7 18 16
15 19 -3 4 -14 -1 -23 -10 -10 -8 -47 -25 -83 -37 -75 -25 -134 -22 -213 12
-63 27 -98 70 -185 226 -39 70 -83 139 -96 151 l-25 24 -113 -26 c-176 -40
-277 -50 -443 -44 -105 3 -188 13 -279 31 -71 15 -132 28 -135 29 -3 2 -17 1
-31 -1z m1090 -146 c0 -3 -4 -8 -10 -11 -5 -3 -10 -1 -10 4 0 6 5 11 10 11 6
0 10 -2 10 -4z m-703 -12 c-3 -3 -12 -4 -19 -1 -8 3 -5 6 6 6 11 1 17 -2 13
-5z"/>
<path d="M4655 3259 c-4 -6 -5 -12 -2 -15 2 -3 7 2 10 11 7 17 1 20 -8 4z"/>
<path d="M4720 3249 c0 -5 5 -7 10 -4 6 3 10 8 10 11 0 2 -4 4 -10 4 -5 0 -10
-5 -10 -11z"/>
<path d="M4868 3223 c7 -3 16 -2 19 1 4 3 -2 6 -13 5 -11 0 -14 -3 -6 -6z"/>
<path d="M5261 3214 c0 -11 3 -14 6 -6 3 7 2 16 -1 19 -3 4 -6 -2 -5 -13z"/>
</g>
</svg>
