<?xml version="1.0" standalone="no"?>
<!DOCTYPE svg PUBLIC "-//W3C//DTD SVG 20010904//EN"
 "http://www.w3.org/TR/2001/REC-SVG-20010904/DTD/svg10.dtd">
<svg version="1.0" xmlns="http://www.w3.org/2000/svg"
 width="1200.000000pt" height="800.000000pt" viewBox="0 0 1200.000000 800.000000"
 preserveAspectRatio="xMidYMid meet">

<g transform="translate(0.000000,800.000000) scale(0.100000,-0.100000)"
fill="#000000" stroke="none">
<path d="M1505 6056 c-95 -30 -163 -88 -204 -175 l-26 -56 -3 -1940 c-2 -1421
0 -1956 8 -2000 23 -118 96 -213 196 -251 48 -19 145 -19 4449 -19 l4400 0 60
28 c78 37 138 96 167 166 l23 56 0 1975 0 1975 -31 66 c-37 78 -83 127 -150
160 l-49 24 -4400 2 c-3529 1 -4408 -1 -4440 -11z m8808 -140 c50 -18 76 -42
98 -91 18 -38 19 -119 19 -1990 l0 -1950 -23 -39 c-14 -25 -39 -48 -66 -63
l-44 -23 -4375 0 c-4051 0 -4377 1 -4409 17 -19 9 -47 34 -61 56 l-27 41 0
1972 0 1973 21 28 c25 33 72 63 117 73 18 5 1985 8 4372 9 3637 0 4346 -2
4378 -13z"/>
<path d="M1932 5378 c-9 -9 -12 -81 -12 -264 0 -216 2 -255 16 -268 13 -14 51
-16 260 -16 150 0 253 4 265 10 18 10 19 24 19 268 0 187 -3 261 -12 270 -9 9
-82 12 -268 12 -186 0 -259 -3 -268 -12z"/>
<path d="M2756 5374 c-24 -23 -24 -488 0 -522 15 -22 18 -22 269 -22 251 0
254 0 269 22 13 19 16 61 16 255 0 127 -4 243 -10 257 l-10 26 -259 0 c-223 0
-262 -2 -275 -16z"/>
<path d="M3582 5378 c-9 -9 -12 -81 -12 -264 0 -216 2 -255 16 -268 23 -24
505 -24 528 0 14 13 16 52 16 268 0 183 -3 255 -12 264 -9 9 -82 12 -268 12
-186 0 -259 -3 -268 -12z"/>
<path d="M4400 5371 c-6 -12 -10 -113 -10 -258 0 -200 3 -242 16 -261 15 -22
18 -22 263 -22 198 0 251 3 267 14 18 14 19 28 19 264 0 196 -3 252 -14 265
-12 15 -44 17 -272 17 -245 0 -259 -1 -269 -19z"/>
<path d="M5232 5378 c-9 -9 -12 -83 -12 -270 0 -244 1 -258 19 -268 12 -6 115
-10 264 -10 224 0 245 2 260 18 15 16 17 49 17 261 0 148 -4 250 -10 262 -10
18 -24 19 -268 19 -187 0 -261 -3 -270 -12z"/>
<path d="M6050 5371 c-6 -12 -10 -115 -10 -264 0 -224 2 -245 18 -260 16 -15
49 -17 261 -17 148 0 250 4 262 10 18 10 19 24 19 268 0 187 -3 261 -12 270
-9 9 -83 12 -270 12 -244 0 -258 -1 -268 -19z"/>
<path d="M6879 5373 c-11 -13 -14 -68 -14 -263 0 -195 3 -250 14 -263 12 -15
43 -17 266 -17 231 0 253 1 268 18 15 16 17 49 17 261 0 148 -4 250 -10 262
-10 18 -24 19 -269 19 -228 0 -260 -2 -272 -17z"/>
<path d="M7702 5378 c-9 -9 -12 -81 -12 -264 0 -216 2 -255 16 -268 13 -14 51
-16 260 -16 150 0 253 4 265 10 18 10 19 24 19 268 0 187 -3 261 -12 270 -9 9
-82 12 -268 12 -186 0 -259 -3 -268 -12z"/>
<path d="M8530 5380 c-23 -14 -28 -491 -5 -526 l15 -24 255 0 c251 0 254 0
269 22 13 19 16 61 16 255 0 127 -4 243 -10 257 l-10 26 -257 0 c-145 0 -265
-4 -273 -10z"/>
<path d="M9352 5378 c-9 -9 -12 -81 -12 -264 0 -216 2 -255 16 -268 23 -24
505 -24 528 0 14 13 16 52 16 268 0 183 -3 255 -12 264 -9 9 -82 12 -268 12
-186 0 -259 -3 -268 -12z"/>
<path d="M1942 4534 c-22 -15 -22 -18 -22 -269 0 -251 0 -254 22 -269 19 -14
79 -16 448 -16 369 0 429 2 448 16 22 15 22 18 22 265 0 236 -1 250 -20 269
-19 19 -33 20 -448 20 -371 0 -431 -2 -450 -16z"/>
<path d="M3160 4530 c-19 -19 -20 -33 -20 -265 0 -232 1 -246 20 -265 19 -19
33 -20 263 -20 194 0 247 3 263 14 18 14 19 29 19 271 0 242 -1 257 -19 271
-16 11 -69 14 -263 14 -230 0 -244 -1 -263 -20z"/>
<path d="M4013 4535 c-23 -16 -23 -18 -23 -270 l0 -255 24 -15 c35 -23 512
-18 526 5 13 20 13 510 0 530 -15 23 -495 28 -527 5z"/>
<path d="M4862 4534 c-22 -15 -22 -18 -22 -269 0 -251 0 -254 22 -269 19 -13
61 -16 258 -16 197 0 239 3 258 16 22 15 22 18 22 269 0 251 0 254 -22 269
-19 13 -61 16 -258 16 -197 0 -239 -3 -258 -16z"/>
<path d="M5713 4540 c-31 -12 -35 -57 -31 -313 3 -203 4 -220 22 -233 16 -11
69 -14 263 -14 230 0 244 1 263 20 19 19 20 33 20 265 0 232 -1 246 -20 265
-19 19 -33 20 -257 19 -131 0 -248 -4 -260 -9z"/>
<path d="M6550 4530 c-19 -19 -20 -31 -20 -265 0 -232 1 -246 20 -265 19 -19
33 -20 263 -20 194 0 247 3 263 14 18 14 19 29 19 270 0 196 -3 258 -13 268
-10 10 -74 14 -262 16 -240 3 -250 2 -270 -18z"/>
<path d="M7402 4534 c-22 -15 -22 -18 -22 -269 0 -251 0 -254 22 -269 19 -13
61 -16 258 -16 197 0 239 3 258 16 22 15 22 18 22 269 0 251 0 254 -22 269
-19 13 -61 16 -258 16 -197 0 -239 -3 -258 -16z"/>
<path d="M8252 4534 c-22 -15 -22 -18 -22 -267 0 -141 4 -259 10 -267 14 -23
491 -28 526 -5 l24 15 0 255 c0 251 0 254 -22 269 -19 13 -61 16 -258 16 -197
0 -239 -3 -258 -16z"/>
<path d="M9103 4540 c-31 -13 -35 -44 -31 -303 3 -213 4 -230 22 -243 31 -22
782 -21 814 2 22 15 22 18 22 269 0 251 0 254 -22 269 -19 14 -74 16 -403 15
-209 0 -390 -4 -402 -9z"/>
<path d="M1936 3684 c-14 -13 -16 -52 -16 -268 0 -183 3 -255 12 -264 9 -9
166 -12 645 -12 l633 0 15 24 c14 21 16 59 13 266 -3 226 -4 243 -22 256 -17
12 -121 14 -642 14 -553 0 -624 -2 -638 -16z"/>
<path d="M3536 3684 c-14 -13 -16 -52 -16 -268 0 -183 3 -255 12 -264 17 -17
519 -17 536 0 9 9 12 81 12 264 0 216 -2 255 -16 268 -13 14 -51 16 -264 16
-213 0 -251 -2 -264 -16z"/>
<path d="M4388 3689 c-16 -9 -18 -33 -18 -267 0 -187 3 -261 12 -270 17 -17
519 -17 536 0 9 9 12 81 12 263 0 231 -1 253 -18 268 -16 15 -49 17 -263 17
-147 0 -251 -5 -261 -11z"/>
<path d="M5234 3686 c-18 -13 -19 -30 -22 -256 -3 -207 -1 -245 13 -266 l15
-24 260 0 c246 0 260 1 270 19 6 12 10 113 10 258 0 200 -3 242 -16 261 -15
22 -18 22 -263 22 -198 0 -251 -3 -267 -14z"/>
<path d="M6077 3682 c-15 -16 -17 -49 -17 -261 0 -148 4 -250 10 -262 10 -18
24 -19 268 -19 187 0 261 3 270 12 9 9 12 83 12 270 0 244 -1 258 -19 268 -12
6 -115 10 -264 10 -224 0 -245 -2 -260 -18z"/>
<path d="M6926 3684 c-14 -13 -16 -52 -16 -268 0 -183 3 -255 12 -264 17 -17
519 -17 536 0 9 9 12 81 12 264 0 216 -2 255 -16 268 -13 14 -51 16 -264 16
-213 0 -251 -2 -264 -16z"/>
<path d="M7778 3689 c-16 -9 -18 -33 -18 -267 0 -187 3 -261 12 -270 9 -9 83
-12 270 -12 244 0 258 1 268 19 6 12 10 115 10 264 0 224 -2 245 -18 260 -16
15 -49 17 -263 17 -147 0 -251 -5 -261 -11z"/>
<path d="M8620 3680 c-19 -19 -20 -33 -20 -254 0 -129 4 -246 10 -260 l10 -26
643 0 c487 0 646 3 655 12 9 9 12 81 12 264 0 216 -2 255 -16 268 -14 14 -86
16 -645 16 -616 0 -629 0 -649 -20z"/>
<path d="M1932 2838 c-16 -16 -17 -500 -2 -529 10 -18 28 -19 644 -19 577 0
635 1 647 17 11 13 14 68 14 263 0 195 -3 250 -14 263 -12 16 -70 17 -645 17
-478 0 -635 -3 -644 -12z"/>
<path d="M3522 2838 c-17 -17 -17 -519 0 -536 9 -9 554 -12 2389 -12 2148 0
2379 2 2393 16 24 23 24 505 0 528 -14 14 -245 16 -2393 16 -1835 0 -2380 -3
-2389 -12z"/>
<path d="M8616 2828 c-13 -19 -16 -61 -16 -258 0 -197 3 -239 16 -258 l15 -22
629 0 c558 0 630 2 644 16 14 13 16 51 16 260 0 150 -4 253 -10 265 -10 18
-28 19 -645 19 l-634 0 -15 -22z"/>
</g>
</svg>
